<svg width="20" height="19" viewBox="0 0 20 19" fill="none" xmlns="http://www.w3.org/2000/svg">
<path d="M19.6975 15.5135C19.6975 15.8555 19.6214 16.207 19.4597 16.549C19.2979 16.891 19.0886 17.214 18.8127 17.518C18.3465 18.031 17.8327 18.4015 17.2523 18.639C16.6815 18.8765 16.0631 19 15.3971 19C14.4266 19 13.3895 18.772 12.2954 18.3065C11.2013 17.841 10.1071 17.214 9.0225 16.4255C7.92836 15.6275 6.8913 14.744 5.90182 13.7655C4.92185 12.7775 4.03702 11.742 3.24733 10.659C2.46716 9.576 1.83922 8.493 1.38254 7.4195C0.925852 6.3365 0.69751 5.301 0.69751 4.313C0.69751 3.667 0.811681 3.0495 1.04002 2.4795C1.26837 1.9 1.62991 1.368 2.13416 0.893C2.74308 0.2945 3.40908 0 4.11313 0C4.37953 0 4.64593 0.0570001 4.88379 0.171C5.13116 0.285 5.34999 0.456 5.52125 0.703L7.72856 3.8095C7.89981 4.047 8.0235 4.2655 8.10913 4.4745C8.19476 4.674 8.24233 4.8735 8.24233 5.054C8.24233 5.282 8.17573 5.51 8.04253 5.7285C7.91884 5.947 7.73807 6.175 7.50973 6.403L6.78664 7.1535C6.68199 7.258 6.63442 7.3815 6.63442 7.5335C6.63442 7.6095 6.64393 7.676 6.66296 7.752C6.6915 7.828 6.72004 7.885 6.73907 7.942C6.91033 8.2555 7.20527 8.664 7.6239 9.158C8.05204 9.652 8.50873 10.1555 9.00347 10.659C9.51724 11.1625 10.012 11.628 10.5162 12.0555C11.011 12.4735 11.4201 12.7585 11.7436 12.9295C11.7912 12.9485 11.8482 12.977 11.9148 13.0055C11.991 13.034 12.0671 13.0435 12.1527 13.0435C12.3144 13.0435 12.4381 12.9865 12.5428 12.882L13.2659 12.1695C13.5037 11.932 13.7321 11.7515 13.9509 11.6375C14.1697 11.5045 14.3885 11.438 14.6264 11.438C14.8072 11.438 14.9975 11.476 15.2068 11.5615C15.4161 11.647 15.6349 11.7705 15.8728 11.932L19.022 14.1645C19.2694 14.3355 19.4406 14.535 19.5453 14.7725C19.6404 15.01 19.6975 15.2475 19.6975 15.5135Z" fill="black"/>
</svg>
